<?xml version="1.0" encoding="UTF-8"?><svg id="Layer_1" xmlns="http://www.w3.org/2000/svg" viewBox="0 0 364.57 332.87"><defs><style>.cls-1,.cls-2{fill:#002d0f;}.cls-2{font-family:MontserratRoman-ExtraBold, Montserrat;font-size:32px;font-variation-settings:'wght' 800;letter-spacing:.2em;}.cls-2,.cls-3{font-weight:700;}.cls-4{fill:#66401b;}.cls-3{fill:#e28f20;font-family:BerlinSansFBDemi-Bold, 'Berlin Sans FB Demi';font-size:65.8px;letter-spacing:.04em;}.cls-5{fill:#3d312c;}</style></defs><g><path class="cls-1" d="m354.42,212.01h-13.6c2.68-.79,5.54-2.19,7.53-4.71-13.52,2.34-18.65-5.76-18.65-5.76,0,0,10.32,1.88,19.75-9.07-9.29,3.21-18.96,3.07-25.94,1.33,5.53.67,11.16.07,13.92-2.18-3.26.86-7.23-.81-7.23-.81,0,0,2.4-.51,5.03-1.63,2.63-1.11,5.28-5.06,5.28-5.06,0,0-3.25.14-5.53.37-2.28.23-3.72-.54-5.82-1.06-2.1-.51-2.86-1.48-4.51-2.57-1.65-1.08-1.76-2.02-1.41-2.57.34-.54,2.12-1.14,3.22-1.94,1.1-.8,1.7-1.11,4.53-.66,2.83.46,6.1-1.6,6.1-1.6,0,0-3.59.37-5.87-.66,2.12.26,2.46-.86,4.4-1.51,1.94-.66,2.96-3.22,2.96-3.22,0,0-5.71.48-8.2-.17-2.49-.66-3.9-1.25-8.44-4.68,8.78,1.45,12.52-2.79,12.52-2.79,0,0-2.62,1.25-7.28,0,2.2-.66,4.66-2.48,4.66-2.48,0,0-4.38-.09-7.13-.68-2.75-.6-7.94-3.28-8.67-4.16-.73-.88-1.99-4.05-3.27-7.1,6.71,5.33,11.63,1.71,11.63,1.71,0,0-3.3-.06-4.87-1.4,2.28.43,2.36-2.6,3.33-2.99.97-.4,1.05-1.06.18-1.77-.86-.71-1.49.11-2.02.37-.52.26-.79.51-1.83-1.57-1.05-2.08-3.22-3.39-4.51-4.31s-1.91-3.37-3.07-5.05c-1.15-1.68-1.96-1.43-2.17-1.48-.21-.06-.31-.37-.08-1.06,2.36.63,4.09-1.54,5.5-3.02,1.41-1.48,1.36-4.79,1.36-4.79,0,0-1.62,2.57-2.93,2.57-.21-5.25-2.57-7.59-3.46-9.18-.89-1.6-.16-6.96-.42-9.81-.26-2.85-1.83-4.16-1.83-6.79s.37-5.13-1.15-5.25c-1.52-.11-.94,8.44-1.15,13.23-1.99,1.43-1.05,10.55-1.26,13.01-.21,2.45-3.51,6.05-3.51,6.05l3.3-1.48c-.31,2.28.94,5.36.94,5.36,0,0-1.78,1.48-2.1,3.31-1.26-.57-10.11-2.62-14.46-3.14s-5.76-3.14-5.76-3.14c0,0,11.21,2.57,15.62.23,0,0-6.65-1.65-6.55-1.82.1-.17,1.99-1.14,3.51-1.25,1.52-.11,3.2.68,4.09-.4.89-1.08,3.83-4.62,2.31-5.87-1.52-1.25-3.35,1.48-5.14.74-1.78-.74-1.94-1.25-7.18-3.02,6.76.51,8.59-3.88,7.39-4.96-1.21-1.08-2.99.63-4.98.17-1.99-.46-3.88.46-8.33-.97-4.45-1.43-7.81-6.56-7.81-6.56,0,0,6.5,1.31,7.86,1.31s1.26-.86,5.03-1.31c3.77-.46,9.75-6.97,9.75-6.97,0,0-2.52,1.63-8.14,1.5,3.77-2.87,5.74-6.5,6.6-7.79.86-1.28,1.73-3.55,1.73-3.55,0,0-7.62,5.43-9.79,5.99-2.16.56-9-.77-11-.77s-4.05-.56-6.88-3.04c5.23-.38,6.37-1.54,6.37-2.35s-1.14-1.88-1.14-1.88c0,0,4.24-1.07,8.1-3.59,3.85-2.52,4.99-7.96,4.99-7.96,0,0-1.41,2.31-2.67,3.17-1.26.86-5.15,1.88-6.64,2.01-1.49.13-2.48.04-4.05-1.37-1.57-1.41-3.81-1.58-4.64-1.84-.83-.26-2-2.1-.79-2.74s1.38,1.45,5.74.21c4.36-1.24,5.62-5.9,7.82-9.92-.55.51-2.4,2.44-3.85,2.87s-5.93.68-5.93.68c0,0-.98-1.37-2.55-1.71,1.73-.51,3.89-2.99,5.7-5.86-2.12,1.71-5.97,3.34-9.78,2.7-.08-1.8-.98-1.8-1.26-2.1s-.08-2.27.94-4.88c1.02-2.61-.79-4.36-.47-6.2.31-1.84-.04-4.88-.35-6.72-.31-1.84-2.36-2.22-2.59-3.81-.24-1.58.31-3.55-.75-3.68s-1.45,4.02-.98,5.56c.47,1.54.51,5.9-.2,8.47-.71,2.57-.55,4.49.16,6.12.71,1.62.28,3.64.28,4.49s-.83,1.88-1.73,2.35c-.9.47-4.09,1.67-3.73,3.98.35,2.31,1.49,2.18,6.21,3.94-.35,1.07-2.16,1.84-5.31,2.74-3.14.9-5.38,3.42-5.38,3.42,0,0-2.55-.9-2.71,1.03-.16,1.92,1.61,2.27,4.44,2.27s4.44.26,4.44.26c0,0-.55,1.11-2.28,2.31-1.73,1.2-2.79,1.41-4.05,1.67-1.26.26-2.28,3.12-.12,3.98,2.16.86,3.65-.73,6.68-.3,3.03.43,3.03-1.58,3.38-1.28.35.3.59,2.65-.67,4.41s-5.23,4.49-6.33,4.62c-1.1.13-4.87,3.25-8.65,7.02,5.03.94,6.33-1.84,8.45-1.03,2.12.81,6.09-.94,6.09-.94,0,0-7.15,4.02-6.92,5.77.24,1.75,7.35.98,7.35.98,0,0-4.09,4.11-6.96,6.16-2.87,2.05-6.29,2.14-6.29,2.14,0,0,3.85-2.95,4.56-3.55.71-.6.79-2.35-.39-2.82s-5.93-.34-8.45-.94c-2.52-.6-5.62-2.74-5.62-2.74,0,0,2.16-1.37,2.28-2.01.12-.64.04-3.68-1.06-4.28-1.1-.6-1.85.47-3.46.34-1.61-.13-5.46-2.01-9.55-5.86,1.69.98,10.06,2.05,12.77,1.24,2.71-.81,4.79-.73,8.02-2.61-2,.73-6.13.81-8.92-1.07,4.44-2.1,4.44-4.53,3.93-5.39-.51-.86-1.57-.47-2.75-.43-1.18.04-2,.47-4.48-.47-2.48-.94-5.23-1.54-5.23-1.54,0,0,5.9-1.5,7.82-2.95,1.93-1.45,3.77-3.17,3.07-5.43,0,0,3.3-.68,5.07-2.27-2.12.26-11.63.43-16.03,0s-6.45-.34-7.58-1.41c-1.14-1.07-2.99-2.05-2.99-2.05,0,0-.31-2.14.35-2.44.67-.3,3.38.9,6.68,1.03,3.3.13,7.39-1.16,7.39-1.16,0,0-3.18-.26-4.83-.9-1.65-.64-3.26-2.61-3.26-2.61,0,0,1.81.81,3.46,1.07,1.65.26,3.1-.98,5.46-2.44,2.36-1.45,2.67-3.51,1.61-5.56,1.14-.94,2.32-4.24,2.32-4.24,0,0-2.75,3.17-4.83,3.64-2.08.47-3.65.77-5.26.21-1.6-.56-2.92-.21-4.49-.26-1.57-.04-3.46-1.2-5.97-4.45,1.06,1.15,3.81.73,5.27-.09,1.45-.81,4.6-3.55,5.07-4.71.47-1.16-.47-2.18-1.17-2.44-.7-.26-.95.39-2.37,1.11-1.41.73-2.4.86-2.55.43-.16-.43.63-.94,1.85-1.28,1.22-.34,2.24-1.84,2.87-3.85.63-2.01-.35-4.19-.75-4.75-.39-.56-1.34-.9-2.16.38-.83,1.28-2.4,2.65-3.46,2.91-1.06.26-2.28-.3-5.19-1.16,1.65-.34,3.62-2.91,3.62-2.91,0,0-4.4.51-4.68.39-.28-.13-.94-1.8-.51-2.31.43-.51,2.2-4.62,2.95-5.69.75-1.07.75-2.57.51-2.82-.24-.26-2.28,3.55-2.52,3.34-.24-.21-.39-3.08-.43-5.09-.04-2.01-.47-3.68-.94-5.43-.47-1.75-.55-4.58-.67-7.23-.12-2.65-1.02-7.27-1.02-7.27,0,0-.79,8.04-1.3,10.27-.51,2.22-.35,4.96-.35,7.91s-1.02,5.78-1.22,8.34c-.2,2.57.81,5.9.81,5.9,0,0-3.56,1.71-5.33,1.86-1.77.15-5.38-.75-5.38-.75,0,0,2.06,2.25,4.36,2.65-2.16,1.18-5.38.34-5.38.34,0,0,.28,1.71,3.54,3.38,3.26,1.67,4.17.68,4.68,1.33.51.64,6.25,5.56,6.05,6.5-.2.94-2.99,3.47-4.52,3.85-1.53.38-6.09.77-11.24-1.07,2.48,3.98,7.98,4.32,7.98,4.32,0,0-5.46.64-7.47-.26-2-.9-3.58-.73-3.58-.73,0,0,1.53,3.47,3.5,3.94,1.97.47,2.4.56,4.64,1.58,2.24,1.03,6.29.17,6.29.17,0,0-6.33,5.65-11.28,6.63,1.22,2.14,3.38,2.44,7.51,2.05,4.13-.39,9-2.57,9-2.57,0,0-1.34,2.78-4.13,5.09-2.79,2.31-3.85,1.97-5.11,1.8-1.26-.17-2.4-.13-3.81,1.11-1.41,1.24-2.91,2.01-4.87,2.27-1.96.26-3.26.17-4.4-.81-1.14-.98-3.18-.98-3.18-.98l.04-.6s.67.38,3.38-.13c2.71-.51,3.3-3.42,3.3-3.42,0,0-.86.9-2,.98-.04-1.8-1.81-2.44-3.07-4.75-1.26-2.31-.16-2.44-1.38-4.79-1.22-2.35-.83-3.21-.9-5.99-.08-2.78-.75-3.12-.98-4.83-.24-1.71,0-6.59,0-6.59,0,0-2.24,5.26-2.24,7.4s.16,6.5-.28,8.21c-.43,1.71-2.59,5.09-2.59,5.09,0,0-.31-2.22-.2-4.53-1.93,3.25-.39,7.36-.39,7.36,0,0-1.06-1.2-1.89-3.81-.51,6.08,3.89,8.39,3.89,8.39,0,0-.98.98-2.59,1.97-1.61.98-1.38,2.61-1.38,2.61,0,0-.75-.94-2.16-2.57.81,3.95,2,5.65,6.13,6.89-1.1,0-2.63,1.93-4.32,1.93s-4.64-1.63-5.23-1.84c-.59-.21-1.89-.3-1.1,1.8.79,2.1,3.22,3.98,3.22,3.98,0,0-2.02-.86-2.91-.94,2.48,3.89,8.21,5.86,8.57,6.55.35.68.39,3.98-.39,5.65-.79,1.67-8.33,6.72-9.94,6.67-1.61-.04-6.33-3.42-6.33-3.42,0,0,2.79-.09,6.72-.56,3.93-.47,5.7-2.94,5.7-2.94,0,0-2.23.28-3.04.06,2.86-1.88,4.09-3.99,3.46-4.25-.63-.26-5.76.37-8.44.03-2.67-.34-6.13-3.11-6.13-3.11,0,0,5.03-2.99,5.24-4.51,1.44-.11,2.49-2.31,2.31-2.94-.18-.63-1.26-1.14-2.02-.46-.76.68-1.55.43-2.65.31-1.1-.11-2.57-1.45-2.44-1.83.13-.37,1.47.06,2.31-.17s.76-1.37,1.83-1.37,1.62-.2,2.7-1.14c.73.26,1.7.46,2.07-.46.37-.91-.18-1.85-.18-1.85,0,0,1.57-1.65,1.39-3.11,1.26-.63,2.04-1.2,2.86-3.11-.97,1.03-2.99,2-4.87,2s-3.09.48-4.24.48-4.77.54-4.64-.06c.13-.6,1.39-1.63,3.17-2.11,1.78-.49,3.18-1.54,3.45-2.4.26-.86-.5-2.15-1.22-1.77-.72.38-1.26.46-1.86.38-.6-.07-1.24-1.13-2.28-1.01-1.03.11-1.76-.27-1.68-.64.08-.37.35-.21,1.96-1.34,1.61-1.13,1.89-3.41,1.89-3.41,0,0-.83.91-1.45.97-.25-.54-1.39-.5-1.94-.5s-1.62-.53-1.68-.97c-.05-.44.88-.7,1.52-1.18.64-.48,1.69-1.35,1.48-2.18-.21-.83-1.36-.97-1.74-1.23-.38-.26-1.35-.96-1.35-1.61s.29-1.48.34-2.88c.05-1.4.05-2.82-.45-4.08-.5-1.25-.26-4.62-.26-4.62,0,0-.76,1.83-.71,3.99.05,2.17-.34,7.33-1.02,7.87s-1.94,1.31-2.07,2.74c-.13,1.43,1.78,2.31,1.78,2.31,0,0-2.28.31-2.91,1.65-.63,1.34,1.23,3.88,1.23,3.88,0,0-.92,0-2.07-.09-1.15-.09-2.83-1-2.83-1,0,0-.21.94,1.73,2-1.21.03-1.47,1.35-1.47,1.35,0,0-1.53-1.03-3.1-2.99,1.41,5.86,8.45,7.69,8.45,7.69,0,0-.58.6-1.36.83-.79.23-1.94.14-3.62.14s-2.78,1.45-2.75,2.31c.03.86.79,2.42,2.83,2.08-.1.74,1.34,1.28,3.17,2.28-1.99-.29-5.34.37-6.5.74-1.15.37-3.54-.2-3.54-.2l.86,4.05s1.49.11,1.91,1c.42.88,2.04.86,2.04.86,0,0-1.18,1.08-3.16.94,1.3,2.14,7.86.13,7.86.77s-3.5,2.99-5.11,3.59c-1.02.38-2.29.28-3.08.15.21-1.07.22-2.03-.18-2.21-.84-.37-2.65.29-4.03.94-1.39.66-3.88.06-3.88.06,0,0,2.1-.57,2.52-1.63-1.76-.34-3.35-2.85-4.11-2.97-.76-.11-2.04.97-2.93.83-.89-.14-.84-.91-1.18-1.8-.34-.88.29-1.43,0-2.71-.29-1.28-1.7-2.31-2.07-3.11-.37-.8-.47-3.22-.47-4.76s.52-6.9-.5-6.87c-1.02.03-.55,1.83-.63,4.05-.08,2.22-.55,2.57-.84,4.02-.29,1.45.5.68.21,2.48-.29,1.8-.94,3.57-2.12,5.02-1,.03-1.7,1.4-2.46,1.97-.76.57-1.1,1.4-.52,1.63.58.23,1.02.86.76,1.11-.26.26-.29.97.5,1.08.79.11,1.34,1.77,1.05,2.37-.29.6-3.48.11-4.85.29-1.36.17-2.15,1.06-2.96.77-.81-.29-1.86-1.23-2.33-.57-.47.66.1,1.37.26,1.97.16.6.76,1.08.76,2.08-2.8-.37-5.5,1.28-6.21,1.31-.71.03-1.6-.11-1.86.26-.26.37-.63.68-1.52.29-.89-.4-2.38-.14-2.38-.14,0,0,1.15-1.68,2.44-3.79,1.28-2.11.34-3.02.5-3.65.16-.63,2.8-2.11,2.99-4.56-.84.11-2.88,2.05-2.88,2.05,0,0,.55-1.6.94-2.62.39-1.03.18-3-.03-3.25-.21-.26-.94-.46-.21-1.11.73-.66.97-2.48.97-2.48,0,0-6,5.93-6.37,5.82-.37-.11-.68-1.54-.68-1.54,0,0,1.18-.09,1.89-.29s1.39-2.05,1.39-2.68-1.23-.34-1.41-.57c-.18-.23.29-.34.73-.8.45-.46.08-2.17-1.13-2.59-1.2-.43-3.25-1.31-3.56-2.14-.31-.83,0-2.4,0-2.4,0,0,2.1.31,3.96,1.43,1.86,1.11,5.45,2.74,10.27.23-2.25.6-6.03-.11-7.47-1.85,1.34.26,3.38-1.23,3.88-3.85.5-2.62-.55-2.57-1.28-2.2-.73.37-2.25.37-2.86-.34-.6-.71-2.23-.88-2.52-1.54-.29-.66-1.44-1.57-1.97-2.11-.52-.54-1.1-1.14-.71-2.91,2.75,1.74,5.37.26,5.37.26,0,0-.63-.68-2.41-1.34.86,0,4.9-3.56,4.32-5.28-.58-1.71-4.38-1.34-5.32-.94-.94.4-2.66.09-3.41-.3-.75-.38-.35-.73-.39-1.33-.04-.6-.63-.26-.79-1.11-.16-.86.24-1.67.9-1.16.67.51,1.73.68,2.79-.3,1.06-.98,1.69-2.95.79-3.55-.9-.6-1.97-1.84-2.63-3.47-.67-1.63-2.44-1.75-2.44-1.75,0,0,.08-5.43,0-8.04-.08-2.61-.24-9.63-.75-9.63s-.24,5.26-.28,7.14c-.04,1.88-.79,4.66-1.32,6.07-.54,1.41-.39,4.34-.39,4.34,0,0-1.14-1.3-3.09-1.09,1.41.6,2.18,3.23,2,3.51-.18.28-1.87,1.78-1.93,3.21-1.77-.9-4.72,0-4.72,0,0,0,3.2.47,4.26,2.03-2.81-.24-3.91,1.42-3.91,1.42,0,0,1.65-.23,3.43-.34,1.78-.11,3.72.23,4.32,1.11-1.05,2.17-3.17,3.16-4.4,3.16s-2.17,1.08-3.07,1.06c-.89-.03-1.78.51-4.24.68,1.02.46,2.2.71,3.17.74.97.03,1.21.97,2.59,1.31,1.39.34,1.6.14,2.93,1.43,1.34,1.28,2.99,1.25,3.01,1.57.03.31-.5,1-1.57,1.25-1.07.26-3.28.88-4.61.88s-2.02.71-3.2.88c-1.18.17-3.17-.66-3.67,0-.5.66-.34,1.71,1.36,2.65,1.7.94,4.9,2.45,4.9,2.45,0,0-1.94,1.14-2.75,1.8-.81.66-1.83,1.03-3.83,1.2-1.99.17-4.87.03-4.87.03,0,0,1.52,1.45,2.59,1.6,1.07.14,1.31.57,1.86,1.2.55.63,5.16.68,7.99.68s3.75-1.08,3.75-1.08c0,0-.29,1.57-1.23,1.74-.94.17-1.05.63-2.8,1.6-1.76.97-2.36,1-5.03.97-2.67-.03-3.9-.4-7.47-.85,2.86,2.97,8.49,2.57,8.49,2.57,0,0-2.2,1.4-4.79,1.54,3.2,1.54,5.87.14,6.6.29.73.14,1.7,1.06,2.86,1.51,1.15.46,1.49,1.34,2.86,1.97,1.36.63,2.54.34,2.44.63-.1.29-1,.26-1.97.46-.97.2-1.68,1.34-3.64,1.48-1.96.14-4.72-1.03-5.48-.6-.76.43-.24,2.97.52,4.45.76,1.48,4.27,2.68,6.34,3.05,2.07.37,3.33,1.43,3.38,2.34.05.91-3.8,3.34-5.45,3.76-1.65.43-2.88-.17-4.51,0-1.62.17-2.96,2.11-2.02,4.02.94,1.91,4.59,3.99,4.59,3.99,0,0-1.83.83-3.17.6-1.34-.23-3.77.14-2.23,2.28,1,1.38,4.44,2.13,6.76,2.49-.13.11-.23.19-.23.19,0,0-2.91,2.54-5,3.74-2.1,1.2-7.19,2.83-7.19,2.83,0,0,2.22-3.14,1.93-4.15-.29-1.01-1.24-1.48-2.99-1.02,4.35-2.28,3.8-5.3,3.46-5.53-.34-.23-.97-.2-1.78.49-.81.68-3.88,1.31-5.08,1.08-1.21-.23-3.54-1.43-3.54-1.43,0,0,1.73.31,2.41,0,.68-.31,1.02-.8,2.28-.91,1.26-.11,2.62-1.85,1.62-4.45,4.01-.46,7.36-4.76,6.81-5.05-.55-.29-2.57,2.14-4.38,2.28.92-2.71,1.44-6.25.16-6.56-1.28-.31-2.2,2.28-3.04,2.42-.84.14-1.81,1.11-2.75,1.28-.94.17-1.21-.03-4.99-.23,2.24-.34,3.92-2.99,4.23-5.02.31-2.02.03-2.97-.6-3.17-.63-.2-1.21.54-1.83.54s-1.34-.31-2.07-.71c-.73-.4-2.83,0-2.83,0,0,0,2.31-1.85,2.91-2.97.6-1.11,2.15-2.48,4.87-5.25-.81-.14-3.33,1.28-3.33,1.28,0,0-.34-1.31-1.28-1.74-.94-.43-3.48.86-3.67.77-.18-.09-.34-.37-.18-1.08.68,0,1.83-3.19,1.99-4.62.16-1.43.26-4.96-.26-5.76-.52-.8-.94-1.54-.73-2.62.21-1.08-.37-2.17-1.89-3.99,0,0-.34,7.24-.45,7.87s-.39.68-1.39,3.14c-1,2.45-.31,8.33-.94,7.2-.63-1.13-2.1-1.85-3.3-1.71-1.21.14-1.26,1.75-.79,2.5.47.74,1.93,2.99,3.03,5.01,1.1,2.01.56,3.21.56,3.21,0,0-.86.17-2.86,1.45-1.99,1.28-.86,4.53-.86,4.53,0,0-2.1-1.17-3.64-.97,2.25,2.54,7.26,3.48,7.26,3.48,0,0-4.43,1.6-7.05,1.28-2.62-.31-8.62-.29-8.75-.29s5.66,3.82,5.66,3.82c0,0-2.52-.71-4.06.11,1.6,1.74,6,1.8,6,1.8,0,0,1.87,1.22,4.38,1.35-.02,1.33,3.06,2.93,3.06,2.93,0,0-4.87,2.51-6.55,2.79-1.68.29-2.46-1.03-3.46-.11-1,.91-.21,2.85,1.73,2.91-1.36.34-7.65,2.05-7.65,2.05,0,0,4.98.51,5.87.97.89.46,4.77-.17,6.45-.17s1.41,1.14,1.1,1.88c-.31.74-5.03,2.62-7.65,2.97-2.62.34-5.76.85-5.76.85,0,0,1.78.06,4.14,1.6,2.36,1.54,6.55,2.57,6.55,2.57l-4.09,1.65s4.98,0,9.8,1.08c-1.89,1.71-8.33,5.65-13.68,6.56.94.8,6.97,3.94,12.05.74-1.62,2.57-7.28,5.53-9.8,5.53s-4.66-2.28-4.66-2.28c0,0,.1,4.22,4.77,6.05-1.94-.06-5.61,1.14-5.61,1.14,0,0,9.12,2.05,17.08-.29-1.36,3.37-5.55,4.56-8.65,5.42-3.09.86-4.14,0-9.27.86,5.5,4.62,11.21,4.28,11.21,4.28,0,0-1.21,1.71-9.01,2.62-7.81.91-12.89-3.48-12.89-3.48,0,0,3.04,5.76,15.46,9.07-5.4,2.22-11.69,2.85-18.29,1.03,1.36,2.11,6.92,3.19,6.92,3.19,0,0-5.66.46-10.85-2.4,2.99,6.84,6.81,7.13,7.96,7.24,1.15.11,6.5,4.91,6.5,4.91,0,0-9.33.74-16.72-3.42,2.52,5.36,10.48,8.67,10.48,8.67,0,0-2.31.29-7.02-1.71,3.07,3.42,12.73,7.99,28.35,6.5-3.35,5.13-19.91,9.13-35.42,3.76,9.43,10.95,19.75,9.07,19.75,9.07,0,0-5.14,8.1-18.65,5.76,1.99,2.52,4.85,3.92,7.53,4.71h-14.77c-5.61,0-10.16,4.55-10.16,10.16v60.95c0,5.61,4.55,10.16,10.16,10.16h344.26c5.61,0,10.16-4.55,10.16-10.16v-60.95c0-5.61-4.55-10.16-10.16-10.16Zm-62.92-33.35l3.2-.23-5.24,4.28,2.04-4.05Zm-1.48-4.68v-5.26s6.25,1.63,12.26.56c-5.27,3.42-12.26,4.71-12.26,4.71Zm2.04-35.66c1.69-.79,6.6-1.22,6.6-1.22,0,0,2.04,2.44,3.58,2.44,0,0-2.9,1.24-5.82.68,8.37,4.32,10.77,1.1,10.77,1.1l.28,3.39c-1.34,1.24-3.73.86-5.54.43-1.81-.43-4.79-2.74-5.9-3.38-1.1-.64-2.48-1.5-3.46-1.88-.98-.39-2.2-.77-.51-1.56Zm4.26,11.7c-1.47,1.25-.58,2.45-.58,2.45,0,0-4.09-.57-8.07-3.76,4.56-1.08,8.65,1.31,8.65,1.31Zm-29.13,8.38l-2.04,7.79s-3.07-3.68-5.19-3.89c4.01-1.58,7.23-3.89,7.23-3.89Zm-45.63-68.87c1.61,2.78,4.36,4.75,4.36,4.75,0,0-3.81-.73-4.36-1.16-.16-2.61,0-3.59,0-3.59Zm-9.63,26.03c.69-.36,1.41,0,1.95.54.53.53.2,4.34.18,4.56l-3.44-3.87s.63-.86,1.32-1.22Zm-10.77-24.75c-.86.74-4.27,2.54-4.27,2.54,0,0,1.36-3.11.5-4.31,0,0,2.78-.57,6.24-1.34-1.97.8-1.6,2.37-2.46,3.11Zm-13.72-3.94c.51-.17,1.97.13,3.1-.98s2.36-2.95,2.4-3.68c.04-.73.83-1.33,1.69-1.15.86.17,4.09.98,5.54.43-2.67-.86-3.34-2.22-3.34-2.22l6.64.68c-3.73,3.42-12.65,8.38-13.87,8.34-1.22-.04-2.67-1.24-2.16-1.41Zm-42.03,5.03c2.31.86,6.01-.16,7.46-.63-.84.3-2.33.87-3.04,1.37-1.02.73-3.1,1.54-5.27,1.18.29-.37.61-1.11.85-1.93Zm-4.83,6.37c1,.17,1.15,1.71,4.14,2,2.99.29,4.51.91,6.71.86-2.04.74-2.04,2.28-1.36,2.97.68.68-2.57,4.28-8.54,6.73,4.3-3.08,6.45-8.16,5.14-8.96-1.31-.8-2.46,1-3.83.7-1.36-.3-1.68-.64-2.57-.59-.89.06-1.47-1.25-2.62-1.14-1.15.11-1.94-.11-1.94-.11,0,0,3.88-2.62,4.87-2.45Zm-24.47,11.01c-1.34,1.37-.24,2.91.75,3.42-.94.86-.55,1.97-.2,2.87.35.9-3.85,8.73-3.85,8.73,0,0,1.22-7.83.24-8.81-.98-.98-4.83-1.63-4.83-1.63,3.22-.86,5.38-5.9,5.38-5.9,0,0,1.61,1.33,2.52,1.33Zm-8.33-6.72l4.13.9s-4.52.56-7.39,1.58c1.77-.9,3.26-2.48,3.26-2.48Zm-19.19,7.55c.97.13,1.63.19,1.63.19l-2.15,1.65s.3-1.09.51-1.85Zm-4,21.92c-2.67-1.07-4.6-3.21-4.6-3.21,3.1.9,6.13-.86,7.11-1.92,0,1.71-2.59,2.65-2.52,5.13Zm-4.83-11.21c2.36.81,5.23,0,5.23,0,0,0-5.07,3.42-9.35,3.12,0,0,2.2-1.45,4.13-3.12Z"/><g><path class="cls-4" d="m113.97,137.05c-.55,1.49-5.33,5.71-6.82,7.52-1.49,1.81-1.12,3.27-.84,3.72.27.45.89,1.29-.57,2.88s-5.11,5.01-5.68,5.41c-.57.4-1.04.72-1.66,1.64-.62.92-1.24.72-1.44,1.27-.2.55-.17.96.25,1.51s.89,1.46,2,1.59c0,.71.09.77.62,1.51s.82,1.2,1.15,1.33c.33.12,1.53-.2,1.95.06.42.26,1,.86,1.86.86s2.51-.63,3.16-.58c.66.05,1.5.78,3.05.89,1.55.11,5.2-.14,5.94-.19s3.84.65,7.68-.61c2.29,2.62,6.34,5.84,9.12,6.66-1.45,6.01-2.08,9.62-4.09,12.97-2.01,3.35-4.2,5.88-6.21,11.09s-1.38,6.03-5.66,7.22c-4.28,1.19-6.37.65-9.6,3.27-.6.48-1.53,2.6-1.67,3.13-.15.52.33,2.05.56,2.27.22.22,21.51,0,23.89,0s4.43-4.54,6.47-7.18c2.05-2.64,8.26-8.11,14.07-12.8,5.8-4.69,7.22-9.15,7.22-9.15,0,0,9.08.85,11.91,7.92,2.83,7.07,2.08,11.87.15,13.73-1.93,1.86-7,.63-9.82,3.72-.93,1.02-.79,2.15-.79,2.62s.84,1.44,1.56,1.44h17.44c1.54,0,3.19-1.46,7.06-6.15,3.87-4.69,4.61-3.8,4.54-8.11s-.6-4.64-1.53-8.18c3.94,1.34,12.84,1.3,15.44.26.21,4.82,3.09,8.37,3.09,8.37,0,0-1.97,6.62-5.13,8.11-3.16,1.49-6.33.11-7.52,3.01-.17.42-.36,1.84-.38,2.17-.02.33.38.66,3.4.66s16.63-.45,18.42-.45,2.31-1.3,4.58-5.88c2.27-4.58,4.54-6.8,4.65-7.88.11-1.08-.97-3.31,0-5.36.97-2.05,1.6-4.87,1.6-4.87,0,0,2.42,3.07,3.91,3.96,1.49.89,7.78,4.01,11.94,5.35,1.26,1.95,1.59,4.61,1.67,6.08.04.65-.31,1.26-.89,1.55-1.16.58-3.1,1.54-3.94,1.81-5.49,1.8-4.71,3.61-4.74,4.91-.04,1.3,7.57.55,13.67,0,6.1-.55,8.91-.69,10.64-3.3,1.74-2.6.47-9.45-1.12-15.31-1.59-5.85-2.87-5.66-2.87-5.66,0,0-8.37-3.09-11.72-17.08-3.35-13.99-.52-6.81-4.02-16.85-3.5-10.05-14.44-17.34-23.07-17.71s-21.95-1.64-39,.6c-9.67-5.28-19.96-7.85-29.62-4.47-1.98.69-4.32,1.04-7.79.45-3.47-.6-7.58-1.41-15.84.3-.91-1.61-2.42-2.7-3.53-2.46s-1.76,1.91-1.76,1.91c0,0-1.64-1.48-3.91-1.41-2.27.07-2.18.32-2.25,2.14-.07,1.82.48,3.42.86,3.78Z"/><path class="cls-5" d="m215,179.7c3.87,2.16,4.61,3.91,6.29,5.4s3.65,4.28,3.65,4.28c-1.93-1.82-3.91-2.72-3.91-2.72l-11.24,1s4.53-1.25,5.94-1.35c1.41-.1,3.82-.62,3.82-.62,0,0-2.28-3.75-4.55-5.99Z"/><path class="cls-5" d="m168.75,183.06c4.71,3.08,13.12,4.91,13.12,4.91,0,0-4.09-2.08-6.72-3.13-2.63-1.04-6.4-1.79-6.4-1.79Z"/><path class="cls-5" d="m160.06,177.03c4.02-3.82,5.43-9.8,5.48-13.49-1.34,4.89-4.22,11.78-5.48,13.49Z"/><path class="cls-5" d="m139.76,155.18c2.94-3.35,9.41-8.74,13.36-9.75-6.59.6-9.9,3.8-13.36,9.75Z"/><path class="cls-5" d="m109.1,149.21c-.59.43.43,2.57,1.51,1.97,1.08-.6-.5-2.7-1.51-1.97Z"/><path class="cls-5" d="m114.97,138.19c.84,1.49,2.88,2.93,2.88,2.93,0,0-1.54-.37-1.96-.62-.42-.25-.92-2.31-.92-2.31Z"/><path class="cls-5" d="m127.5,135.5c2.16-.8,5.93-1.19,10.03-.69,4.09.5,6.79,1.06,9.56.39,2.77-.67,6.46-2.38,10.88-2.46,4.43-.07,8.61,1.66,12.39,4.63-5.6-2.55-8.8-3.59-12.52-3.37-3.72.22-9.64,2.31-12.91,3.68-3.27,1.38-6.05.71-6.05.71l3.8-1.21s-5.82-1.58-9.43-1.66c-3.61-.07-5.75-.04-5.75-.04Z"/><path class="cls-5" d="m181.55,139.53c6.25-1.79,26.84-1.34,32.25-.97,5.41.37,15.28,1.76,21.88,13.67-5.26-5.66-11.31-11.16-22.38-11.71s-20.34-.89-23.17-1.04c-2.83-.15-5.95-.25-8.58.05Z"/></g></g><text class="cls-3" transform="translate(25.83 280.34) scale(1.08 1)"><tspan x="0" y="0">ÉVASION</tspan></text><text class="cls-2" transform="translate(77.81 324.58)"><tspan x="0" y="0">CAMPING</tspan></text></svg>